<svg width="45" height="43" viewBox="0 0 45 43" fill="none" xmlns="http://www.w3.org/2000/svg">
<g clip-path="url(#clip0_1_1232)">
<path d="M3.43829 30.4652C6.00341 29.2958 8.4149 29.3785 10.6667 31.0323C12.2507 32.1959 12.9127 33.9147 13.3205 35.7457C13.7638 37.7302 13.8051 39.7503 13.6987 41.7762C13.6633 42.4732 13.3678 42.7036 12.6763 42.739C9.95747 42.8749 7.26233 42.7921 4.66766 41.8767C2.15574 40.9907 0.565838 39.2837 0.234854 36.5844C-0.00747195 34.5762 0.684046 32.8692 2.12619 31.4635C2.36851 31.2272 2.49263 31.0677 2.30941 30.6956C-2.50758 20.7964 1.12733 9.26092 10.519 3.57889C20.9627 -2.74107 34.6984 0.525221 40.9871 10.8144C46.8148 20.3415 44.0014 32.757 34.6157 39.0002C30.969 41.4277 26.9558 42.6622 22.5939 42.7981C22.4816 42.7981 22.3456 42.8394 22.2689 42.7921C22.0206 42.6386 21.6364 42.4791 21.595 42.2605C21.5123 41.8589 21.8847 41.7644 22.2452 41.7231C23.8588 41.5399 25.4959 41.475 27.0681 41.1147C35.2658 39.2423 41.4599 32.7097 42.6834 24.4052C43.6645 17.7427 41.5663 11.9779 36.7316 7.29998C26.8731 -2.24493 10.383 0.153112 3.76927 12.1078C0.577658 17.8904 0.477182 23.8795 3.14869 29.9101C3.22552 30.0872 3.33191 30.2527 3.4442 30.4652H3.43829ZM3.01275 32.1663C2.90636 32.255 2.82361 32.3199 2.74678 32.3967C0.412167 34.7711 0.973658 38.6872 3.88749 40.3469C5.41237 41.2151 7.10275 41.5164 8.8168 41.6286C10.0521 41.7054 11.2991 41.6463 12.5285 41.6463C12.8535 39.4077 12.4398 36.0056 11.6478 34.1332C10.9445 32.4676 9.73877 31.3631 7.97749 30.926C6.58854 30.5775 5.2587 30.7429 3.91113 31.5048C4.51399 32.3495 5.08139 33.1232 5.63105 33.9147C5.85565 34.2337 6.05069 34.2632 6.44078 34.1392C7.03183 33.9501 7.67605 33.8851 8.30253 33.8851C8.52123 33.8851 8.73993 34.2454 8.95863 34.4344C8.71626 34.5939 8.49169 34.8361 8.21978 34.8952C7.77653 35.0015 7.3037 34.9897 6.71266 35.0369C6.88997 35.285 6.93725 35.3854 7.01409 35.4503C7.80608 36.1473 8.61581 36.8207 9.37824 37.5472C9.54969 37.7125 9.66786 38.126 9.57923 38.315C9.40778 38.6753 9.04138 38.6222 8.73405 38.3977C8.4326 38.1733 8.13703 37.9488 7.85337 37.7067C7.19731 37.1337 6.55308 36.5549 5.76699 35.852C5.68425 36.4663 5.57786 36.927 5.57195 37.3936C5.57195 37.7893 5.53058 38.1378 5.07547 38.1673C4.6322 38.1969 4.50217 37.8602 4.45489 37.4704C4.34259 36.5785 4.62629 35.787 5.09912 35.0842C4.38396 34.0919 3.69835 33.135 2.99502 32.1605L3.01275 32.1663Z" fill="black"/>
<path d="M22.0564 34.2992C16.2111 34.1988 10.9804 30.3124 9.51459 24.9197C7.77691 18.5171 11.199 12.0435 17.5468 9.74C24.0069 7.38921 31.3535 10.4133 34.0782 16.5443C37.2875 23.7502 33.0025 32.102 25.183 33.8563C24.1605 34.0866 23.1026 34.1575 22.0624 34.3051L22.0564 34.2992ZM32.9729 26.2841C34.1373 24.1046 34.421 20.4189 33.5403 18.5584C33.2744 18.6234 33.0025 18.7061 32.7247 18.7652C31.1171 19.1018 29.5922 18.8892 28.3038 17.8378C27.6477 17.3062 26.9503 17.0641 26.1405 17.005C25.0057 16.9164 24.2197 16.3375 23.735 15.3158C23.0789 13.9454 23.3804 12.6578 24.6688 11.4824C24.9998 11.1812 25.3604 10.9095 25.7682 10.5728C23.6877 9.95267 21.69 9.82267 19.5918 10.2893C19.9405 10.7087 20.2479 11.0454 20.5139 11.4174C21.5777 12.9 21.6073 14.1521 20.4429 15.552C19.2076 17.0464 18.658 18.7001 18.6048 20.6316C18.5102 24.0101 16.5302 26.1955 13.1968 26.7803C12.6884 26.8688 12.1683 26.922 11.6423 26.9929C13.4864 30.8971 18.5456 33.4546 22.3165 33.0588C22.4111 32.0902 22.0919 31.2101 21.7254 30.3419C21.229 29.1724 20.9925 27.9438 21.0339 26.6858C21.1403 23.0297 24.1369 20.9033 27.63 21.9842C28.8652 22.3681 29.9823 22.9883 30.8925 23.9038C31.6313 24.6421 32.2755 25.4749 32.9789 26.29L32.9729 26.2841ZM10.1706 21.5412C10.1115 21.553 10.0583 21.5648 9.99924 21.5767C10.2829 22.8524 10.5489 24.1341 10.8621 25.4041C10.9035 25.5812 11.1517 25.847 11.3054 25.847C14.1129 25.8589 17.0681 24.9375 17.4227 20.9978C17.6237 18.7592 17.9842 16.6743 19.5386 14.92C20.4547 13.8805 20.4074 13.1422 19.58 12.0258C19.2963 11.6419 18.9712 11.2639 18.5988 10.9686C18.4098 10.815 18.0314 10.7382 17.8069 10.815C13.3032 12.3802 10.1706 16.7983 10.1647 21.5412H10.1706ZM23.664 33.053C27.0862 32.5509 29.8995 30.9443 31.9504 28.0797C32.0923 27.8847 32.2165 27.5126 32.1219 27.3355C30.9102 25.0732 29.1844 23.4017 26.5956 22.8288C24.6984 22.4095 22.7775 23.5553 22.346 25.4572C22.1451 26.3314 22.1096 27.3119 22.287 28.186C22.6238 29.8044 23.1735 31.3755 23.6582 33.0471L23.664 33.053ZM33.2685 17.4598C32.045 14.5952 30.1005 12.5456 27.3817 11.2225C27.2517 11.1576 27.0093 11.1693 26.8971 11.2461C26.2942 11.6773 25.6677 12.0967 25.1298 12.6046C24.5507 13.1539 24.3556 13.8628 24.6511 14.6542C24.9585 15.487 25.5436 15.9123 26.442 15.9595C27.3877 16.0068 28.2092 16.3494 28.9598 16.9578C30.2305 17.9973 31.6727 18.0505 33.2685 17.4539V17.4598Z" fill="black"/>
</g>
<defs>
<clipPath id="clip0_1_1232">
<rect width="44.4707" height="42.8824" fill="white" transform="translate(0.000244141)"/>
</clipPath>
</defs>
</svg>
