<svg width="44" height="43" viewBox="0 0 44 43" fill="none" xmlns="http://www.w3.org/2000/svg">
<g clip-path="url(#clip0_1_1238)">
<path d="M20.0329 0.456177C31.3626 0.554949 40.1315 9.26434 40.2138 20.0247C40.2138 20.4256 40.337 20.9369 40.6014 21.2041C43.6966 24.3125 44.3721 27.7754 42.5925 31.9529C41.0537 35.5668 38.3049 38.1465 35.0804 40.2672C33.7178 41.162 32.2671 41.9463 30.7811 42.6435C30.2701 42.8818 29.442 42.8934 28.9486 42.6435C27.2688 41.8068 25.6772 40.7959 24.0268 39.8895C23.6626 39.692 23.1869 39.5409 22.7875 39.5874C12.051 40.8773 2.04279 33.3008 0.697792 22.831C-0.70594 11.9079 6.77671 2.12368 17.6718 0.647911C18.6057 0.520088 19.5512 0.496848 20.0329 0.456177ZM41.9816 28.0659C42.011 24.7483 40.2607 22.1744 37.6059 21.2797C35.0099 20.4024 32.6724 21.2913 30.7342 23.8884C30.0587 24.789 29.6359 24.7716 28.9192 23.7664C27.4685 21.7445 25.5597 20.5825 22.9989 21.0647C20.303 21.576 18.6409 23.3132 17.9596 25.9104C17.2841 28.4959 18.0594 30.8548 19.428 33.0277C21.8243 36.8334 25.4187 39.2504 29.395 41.191C29.6593 41.3188 30.0998 41.3072 30.3641 41.1794C33.894 39.4828 37.0891 37.333 39.5031 34.2072C40.9772 32.3015 41.9405 30.175 41.9816 28.0717V28.0659ZM38.7454 20.0072C38.5105 18.3165 38.3049 16.8175 38.0875 15.2313C37.4885 15.394 37.1244 15.4986 36.7602 15.5915C34.3052 16.2423 32.0028 15.9112 30.0293 14.3133C28.9428 13.436 27.7916 12.9654 26.4172 12.8666C24.8549 12.7504 23.7566 11.9254 23.04 10.5658C21.9299 8.47419 22.2295 6.52776 24.0268 4.69757C24.6376 4.07008 25.3482 3.53555 26.0355 2.94291C23.2045 1.87966 18.4647 1.6763 16.5617 2.50715C17.1961 3.40191 17.9243 4.25019 18.4529 5.20886C19.3751 6.88218 19.4632 8.64847 18.1769 10.1707C16.0449 12.6981 15.064 15.5044 14.9524 18.822C14.7821 24.0221 11.7514 27.2583 6.65338 28.1705C5.86635 28.3099 5.0617 28.3622 4.26292 28.4552C6.0308 33.9632 16.5089 39.7269 21.3485 38.0768C20.121 36.3976 18.7114 34.7534 17.6248 32.9232C16.2622 30.6223 15.7688 28.0601 16.4854 25.4165C17.2666 22.5347 19.1107 20.536 22.0416 19.7225C24.9548 18.9092 27.4157 19.8097 29.4302 21.9885C29.5594 22.1279 29.5712 22.3778 29.6652 22.6508C32.2494 19.6703 35.098 18.7987 38.7454 20.0072ZM4.61532 26.8516C10.3007 26.4972 13.2668 23.778 13.4547 18.4153C13.5722 15.0745 14.5648 12.2159 16.6615 9.63622C17.8832 8.13717 17.8715 6.98676 16.7849 5.37736C16.3386 4.72081 15.7571 4.15723 15.2519 3.54136C14.8174 3.01264 14.3533 2.96034 13.6955 3.21599C4.70929 6.70787 -0.0363775 16.5386 2.88268 25.585C3.21159 26.6076 3.63447 27.1886 4.61532 26.8516ZM37.4944 13.7323C35.6913 9.27011 32.7193 6.02228 28.4964 3.90739C28.2673 3.79119 27.8268 3.77376 27.6506 3.9132C26.5875 4.73824 25.454 5.5168 24.573 6.51033C23.0694 8.20688 24.4614 11.4257 26.8754 11.4257C28.3437 11.4257 29.6123 12.0067 30.7694 12.977C32.7487 14.6329 35.0099 14.7142 37.5002 13.7382L37.4944 13.7323Z" fill="black"/>
</g>
<defs>
<clipPath id="clip0_1_1238">
<rect width="43.6675" height="42.8877" fill="white" transform="translate(0.000244141)"/>
</clipPath>
</defs>
</svg>
