<svg width="36" height="35" viewBox="0 0 36 35" fill="none" xmlns="http://www.w3.org/2000/svg">
<circle cx="18.3328" cy="17.5" r="16.7708" stroke="#421908" stroke-width="1.45833"/>
<path fill-rule="evenodd" clip-rule="evenodd" d="M9.58276 16.5278C9.58276 12.8615 9.58276 11.0279 10.7222 9.88944C11.8607 8.75 13.6943 8.75 17.3605 8.75H19.305C22.9712 8.75 24.8048 8.75 25.9433 9.88944C27.0828 11.0279 27.0828 12.8615 27.0828 16.5278V18.4722C27.0828 22.1385 27.0828 23.9721 25.9433 25.1106C24.8048 26.25 22.9712 26.25 19.305 26.25H17.3605C13.6943 26.25 11.8607 26.25 10.7222 25.1106C9.58276 23.9721 9.58276 22.1385 9.58276 18.4722V16.5278ZM24.1661 13.125C24.1661 13.5118 24.0125 13.8827 23.739 14.1562C23.4655 14.4297 23.0945 14.5833 22.7078 14.5833C22.321 14.5833 21.9501 14.4297 21.6766 14.1562C21.4031 13.8827 21.2494 13.5118 21.2494 13.125C21.2494 12.7382 21.4031 12.3673 21.6766 12.0938C21.9501 11.8203 22.321 11.6667 22.7078 11.6667C23.0945 11.6667 23.4655 11.8203 23.739 12.0938C24.0125 12.3673 24.1661 12.7382 24.1661 13.125ZM20.2772 18.4722C20.2772 18.9879 20.0723 19.4825 19.7077 19.8472C19.343 20.2118 18.8485 20.4167 18.3328 20.4167C17.8171 20.4167 17.3225 20.2118 16.9578 19.8472C16.5932 19.4825 16.3883 18.9879 16.3883 18.4722C16.3883 17.9565 16.5932 17.4619 16.9578 17.0973C17.3225 16.7326 17.8171 16.5278 18.3328 16.5278C18.8485 16.5278 19.343 16.7326 19.7077 17.0973C20.0723 17.4619 20.2772 17.9565 20.2772 18.4722ZM22.2217 18.4722C22.2217 19.5036 21.8119 20.4928 21.0826 21.2221C20.3533 21.9514 19.3642 22.3611 18.3328 22.3611C17.3014 22.3611 16.3122 21.9514 15.5829 21.2221C14.8536 20.4928 14.4439 19.5036 14.4439 18.4722C14.4439 17.4408 14.8536 16.4517 15.5829 15.7224C16.3122 14.9931 17.3014 14.5833 18.3328 14.5833C19.3642 14.5833 20.3533 14.9931 21.0826 15.7224C21.8119 16.4517 22.2217 17.4408 22.2217 18.4722Z" fill="#421908"/>
</svg>
