<svg width="77" height="108" viewBox="0 0 77 108" fill="none" xmlns="http://www.w3.org/2000/svg">
<path opacity="0.5" d="M38.8463 0.68248C40.1937 1.44525 46.0589 8.14964 48.2781 11.4818C51.4485 16.2591 52.8355 24.4489 51.4881 30.2701C51.1315 31.7956 49.6652 35.7701 48.2781 39.1424C46.0589 44.4015 45.6626 45.7263 45.3059 49.0183C45.1078 51.1059 44.6718 54.157 44.3548 55.803C44.0378 57.4489 43.8396 58.854 43.8793 58.8942C43.9585 58.9745 44.6718 58.4927 45.5437 57.8905C48.3178 55.8431 50.6163 54.6789 52.3996 54.3978C53.3507 54.2373 54.7378 53.8358 55.4511 53.5548C58.5422 52.23 64.2488 53.2738 70.867 56.2847C74.5525 58.011 75.0281 58.3321 75.0281 59.4964C75.0281 60.2993 68.5288 65.719 66.1114 66.9635C60.8011 69.6533 48.4367 70.6971 43.3244 68.8504C42.3733 68.5292 41.3826 68.2884 41.1448 68.4088C40.8674 68.4891 40.1144 70.2555 39.4011 72.303C37.9348 76.4781 36.2704 80.0511 34.5267 82.6205C33.853 83.584 33.417 84.4271 33.4963 84.5074C33.5756 84.5876 35.1607 83.865 37.0233 82.9015C46.9307 77.6825 56.1248 78.4453 68.0137 85.4709C70.2329 86.7957 73.0862 88.3614 74.3544 88.9636C77.8418 90.6898 77.8814 92.6168 74.4733 93.6205C73.6014 93.8614 70.7481 94.7446 68.2118 95.5877C62.2277 97.595 57.8289 98.3577 51.8844 98.3979C47.4855 98.438 46.5741 98.2774 40.7485 96.792C35.24 95.3468 34.0511 94.9052 31.7922 93.3395C30.3656 92.3358 28.9785 91.5329 28.7408 91.5329C28.503 91.5329 27.9482 92.1752 27.4726 92.938C27.0367 93.7008 24.6193 96.2701 22.1623 98.6388C16.5349 104.058 8.05413 109.478 8.05413 107.631C8.05413 107.19 11.1452 104.5 15.1875 101.489C16.8123 100.245 19.9034 97.4745 22.0434 95.2665L25.8874 91.292L21.8452 89.9672C19.5863 89.2044 16.9708 88.2008 15.98 87.719C11.4226 85.3504 5.08191 78.4855 2.66451 73.2665C-1.06067 65.2774 -0.822891 52.5913 3.02117 52.5913C3.41747 52.5913 5.51784 53.1132 7.6182 53.7957C9.71857 54.438 12.1756 55.1606 13.0871 55.4015C14.9497 55.8832 18.0804 58.3322 22.7567 63.0292C25.2137 65.5183 26.1252 66.7628 27.5915 69.8541C30.0485 74.9526 30.7222 77.7227 30.4448 81.2957L30.2071 84.1059L30.9996 83.1022C32.2282 81.6168 36.3893 72.865 37.38 69.7738C38.2915 66.8833 38.1726 65.6387 36.9837 65.2373C35.8741 64.8759 28.3841 56.8066 26.6404 54.1168C25.8082 52.792 24.7382 50.7044 24.3022 49.4197C23.0737 46.1278 21.4489 39.1022 21.6074 37.657C21.8452 35.3285 22.6378 35.3285 27.5519 37.8577C30.0089 39.1022 32.3867 40.4672 32.8226 40.8285C35.7156 43.3978 40.1541 49.9015 40.1541 51.6278C40.1541 52.3504 41.3826 55.1205 41.5807 54.8796C41.6996 54.7993 42.1356 52.6314 42.5715 50.1424C43.4433 45.1241 43.2452 43.3577 41.7393 41.9526C41.3033 41.5511 40.9467 41.0292 40.9467 40.8285C40.9467 40.5876 40.0352 39.4635 38.9652 38.2993C35.3589 34.4453 32.6641 27.2591 32.6245 21.5985C32.6245 18.1861 33.3774 13.4489 34.4474 9.95621C35.0022 8.22993 35.5967 5.41971 35.7948 3.73357C36.0722 1.08394 36.5082 0.0401459 37.38 0C37.4989 0 38.1726 0.321167 38.8463 0.68248ZM37.5782 10.2774C35.0419 19.4307 35.2796 25.9745 38.3311 32.3577C39.837 35.4891 42.0563 38.2591 43.7604 39.1424C44.87 39.7445 44.9096 39.7445 45.4248 38.4599C45.7418 37.7372 46.4552 36.011 47.0496 34.646C49.5859 28.5037 49.9029 23.6059 48.08 17.7044C47.0892 14.4124 46.5344 13.4088 44.4737 10.8394C41.8581 7.58759 39.2822 4.77737 39.0841 4.93796C39.0444 5.01825 38.3311 7.38686 37.5782 10.2774ZM24.9363 41.6314C25.293 44.3613 26.5611 48.3358 27.5915 50.1022C29.8108 53.9964 37.4196 63.1497 37.9744 62.5876C38.1726 62.3869 38.3707 60.7811 38.3311 59.0949C38.2915 51.6278 34.1304 44.4015 27.9878 41.0292C24.8174 39.3029 24.5797 39.3431 24.9363 41.6314ZM55.57 56.365C54.1037 56.6862 51.8844 57.4891 50.6163 58.1314C47.7233 59.6168 42.4526 63.7519 42.6507 64.3541C42.9678 65.3577 45.4248 66.3614 48.0404 66.5621C51.29 66.7628 59.1763 66.0402 61.7126 65.2774C63.3374 64.7555 71.0651 59.938 71.0651 59.4161C71.0255 59.1752 66.7851 57.2482 64.5263 56.4051C62.5051 55.6825 58.8989 55.6825 55.57 56.365ZM3.77414 56.6862C3.57599 56.9672 3.29858 58.5329 3.14006 60.1387C2.86266 63.7519 4.28932 70.376 6.19154 73.9891C8.6882 78.8066 14.7912 84.7081 18.9126 86.3139C20.8941 87.0767 27.2348 88.3212 27.5122 88.0001C28.1067 87.3979 27.1952 75.7957 26.363 73.4271C24.7778 68.8906 23.9852 67.8468 18.3578 62.6278C14.593 59.1752 14.3949 59.0548 10.1941 57.6497C5.4782 56.1241 4.40821 55.9234 3.77414 56.6862ZM40.7485 82.7008C37.4196 84.1059 30.4448 88.3614 30.4448 88.9636C30.4448 89.9271 39.4407 93.8212 44.117 94.9453C47.0892 95.6278 54.2226 95.7482 57.9874 95.146C61.3163 94.584 73.0862 91.1314 72.8485 90.73C72.6107 90.3285 64.5263 85.3906 62.1485 84.1862C57.9477 82.0986 53.0337 81.0949 47.6837 81.2555C44.4341 81.3358 43.483 81.5365 40.7485 82.7008Z" fill="white"/>
</svg>
