<svg width="36" height="35" viewBox="0 0 36 35" fill="none" xmlns="http://www.w3.org/2000/svg">
<circle cx="17.9998" cy="17.5" r="16.7708" stroke="#421908" stroke-width="1.45833"/>
<path d="M24.9211 25.6542C24.8663 25.7587 24.7857 25.846 24.6878 25.9068C24.5898 25.9676 24.4781 25.9998 24.3643 26H20.546C20.4389 26 20.3335 25.9716 20.2397 25.9176C20.1458 25.8635 20.0665 25.7855 20.009 25.6908L16.7882 20.3883L12.1076 25.7817C11.9935 25.9101 11.8357 25.9862 11.6684 25.9935C11.5011 26.0008 11.3378 25.9388 11.2138 25.8208C11.0899 25.7028 11.0154 25.5384 11.0064 25.3632C10.9974 25.1881 11.0546 25.0162 11.1658 24.885L16.0794 19.2183L11.0997 11.025C11.0384 10.9242 11.0041 10.808 11.0003 10.6885C10.9966 10.569 11.0236 10.4507 11.0785 10.3459C11.1334 10.2411 11.2142 10.1537 11.3124 10.0929C11.4106 10.032 11.5226 9.99994 11.6367 10H15.455C15.5621 10 15.6674 10.0284 15.7613 10.0824C15.8551 10.1365 15.9345 10.2145 15.9919 10.3092L19.2128 15.6117L23.8933 10.2183C24.0074 10.0899 24.1652 10.0138 24.3326 10.0065C24.4999 9.99917 24.6632 10.0612 24.7871 10.1792C24.911 10.2972 24.9856 10.4616 24.9946 10.6368C25.0036 10.8119 24.9463 10.9838 24.8352 11.115L19.9215 16.7775L24.9012 24.9758C24.9622 25.0767 24.9962 25.1928 24.9997 25.3122C25.0032 25.4315 24.976 25.5496 24.9211 25.6542Z" fill="#481207"/>
</svg>
