<svg width="25" height="14" viewBox="0 0 25 14" fill="none" xmlns="http://www.w3.org/2000/svg">
<path d="M24.762 7.76439L19.1268 12.8836C18.9769 13.0337 18.7736 13.118 18.5616 13.118C18.3496 13.118 18.1462 13.0337 17.9963 12.8836C17.8464 12.7335 17.7622 12.5299 17.7622 12.3176C17.7622 12.1054 17.8464 11.9018 17.9963 11.7517L22.2684 7.99838H0.795245C0.583362 7.99838 0.380157 7.9141 0.230332 7.76408C0.0805084 7.61406 -0.00366211 7.41058 -0.00366211 7.19842C-0.00366211 6.98626 0.0805084 6.78279 0.230332 6.63277C0.380157 6.48275 0.583362 6.39846 0.795245 6.39846H22.2684L17.9311 2.24997C17.7812 2.09987 17.697 1.89629 17.697 1.68401C17.697 1.47173 17.7812 1.26814 17.9311 1.11804C18.081 0.967934 18.2843 0.883606 18.4963 0.883606C18.7083 0.883606 18.9117 0.967934 19.0616 1.11804L24.762 6.63245C24.8363 6.70674 24.8952 6.79497 24.9354 6.89208C24.9756 6.9892 24.9963 7.09329 24.9963 7.19842C24.9963 7.30355 24.9756 7.40764 24.9354 7.50476C24.8952 7.60187 24.8363 7.6901 24.762 7.76439Z" fill="#EBEBEB"/>
</svg>
