<svg width="40" height="20" viewBox="0 0 40 20" fill="none" xmlns="http://www.w3.org/2000/svg">
<path d="M0.374893 11.2482L9.39128 19.6168C9.63113 19.8621 9.95644 20 10.2956 20C10.6348 20 10.9601 19.8621 11.2 19.6168C11.4399 19.3714 11.5746 19.0386 11.5746 18.6916C11.5746 18.3445 11.4399 18.0117 11.2 17.7664L4.36463 11.6307H38.7217C39.0608 11.6307 39.3859 11.493 39.6256 11.2477C39.8653 11.0025 40 10.6698 40 10.323C40 9.97619 39.8653 9.64357 39.6256 9.39833C39.3859 9.15308 39.0608 9.01531 38.7217 9.01531H4.36463L11.3044 2.23364C11.5442 1.98826 11.679 1.65546 11.679 1.30844C11.679 0.961419 11.5442 0.628613 11.3044 0.383233C11.0645 0.137853 10.7392 0 10.4 0C10.0608 0 9.73549 0.137853 9.49564 0.383233L0.374893 9.39781C0.256046 9.51926 0.161762 9.66349 0.097435 9.82224C0.0331078 9.981 0 10.1512 0 10.323C0 10.4949 0.0331078 10.665 0.097435 10.8238C0.161762 10.9826 0.256046 11.1268 0.374893 11.2482Z" fill="#E64B2D"/>
</svg>
