<svg width="40" height="20" viewBox="0 0 40 20" fill="none" xmlns="http://www.w3.org/2000/svg">
<path d="M39.6251 11.2482L30.6087 19.6168C30.3689 19.8621 30.0436 20 29.7044 20C29.3652 20 29.0399 19.8621 28.8 19.6168C28.5601 19.3714 28.4254 19.0386 28.4254 18.6916C28.4254 18.3445 28.5601 18.0117 28.8 17.7664L35.6354 11.6307H1.27825C0.939238 11.6307 0.61411 11.493 0.374391 11.2477C0.134673 11.0025 0 10.6698 0 10.323C0 9.97619 0.134673 9.64357 0.374391 9.39833C0.61411 9.15308 0.939238 9.01531 1.27825 9.01531H35.6354L28.6956 2.23364C28.4558 1.98826 28.321 1.65546 28.321 1.30844C28.321 0.961419 28.4558 0.628613 28.6956 0.383233C28.9355 0.137853 29.2608 0 29.6 0C29.9392 0 30.2645 0.137853 30.5044 0.383233L39.6251 9.39781C39.744 9.51926 39.8382 9.66349 39.9026 9.82224C39.9669 9.981 40 10.1512 40 10.323C40 10.4949 39.9669 10.665 39.9026 10.8238C39.8382 10.9826 39.744 11.1268 39.6251 11.2482Z" fill="#E64B2D"/>
</svg>
