<svg width="266" height="64" viewBox="0 0 266 64" fill="none" xmlns="http://www.w3.org/2000/svg">
<path d="M95.0549 1.30097C86.6132 5.81499 81.9838 19.2203 85.592 28.8639C87.4301 33.7199 93.8295 42.4744 98.9354 47.0568C101.046 48.9034 102.407 50.5449 102.067 50.8185C101.727 51.0237 97.5057 51.6392 92.6721 52.2548C76.4014 54.1698 59.5179 53.3491 48.8296 50.1345C45.698 49.177 37.5966 45.5521 36.6435 44.663C36.2351 44.2526 37.937 42.9531 46.583 37.208C54.3439 32.01 60.8114 25.581 63.3984 20.6566C65.1003 17.2369 64.6919 11.2865 62.4453 8.2088C58.9733 3.21601 49.1019 1.57455 41.3409 4.5839C36.5074 6.49894 34.6693 6.49894 30.7207 4.37872C25.1383 1.43776 20.1685 2.60046 15.2669 8.07201C12.2714 11.3549 11.7949 13.1332 12.2714 18.3996C12.8161 24.6234 17.5815 33.5147 23.7767 40.0122L27.1806 43.5003L22.7555 45.2785C16.22 47.8775 10.161 49.3138 5.59973 49.2454C0.766157 49.177 -0.867727 49.9294 0.425765 51.5024C3.28506 54.9905 11.5906 54.6486 21.5301 50.6133C25.4106 49.1086 29.4272 47.8091 30.5845 47.8091C31.6738 47.8091 34.7373 49.0402 37.4605 50.4765C40.1836 51.9812 45.9022 54.1698 50.1912 55.4009C57.6117 57.5211 58.6329 57.5895 70.2743 57.6579C79.533 57.7263 85.7281 57.3159 95.5995 56.0165L108.603 54.375L114.661 57.2476C117.929 58.7522 122.899 60.6673 125.622 61.4196C135.834 64.2238 155.032 64.8393 166.333 62.7875C172.596 61.6248 184.782 57.5211 190.705 54.5118L196.083 51.776L201.53 53.2807C211.878 56.0848 215.758 55.9481 234.684 52.118C239.79 51.0921 258.852 44.663 262.596 42.6796C264.502 41.722 266 39.807 266 38.3707C266 37.4816 259.396 38.9863 250.342 41.9956C236.045 46.7148 224.676 49.3138 216.643 49.6558C211.946 49.861 208.065 49.7242 206.159 49.177L203.232 48.4247L209.223 42.406C217.052 34.6774 219.162 30.6421 219.57 22.8452C219.911 16.0058 218.822 13.1332 215.009 11.013C211.197 8.82435 208.61 9.09793 202.959 12.2441L197.99 14.9798L195.062 13.4752C188.322 9.91866 180.085 12.4492 175.796 19.3571C173.958 22.3664 173.754 23.324 173.754 28.2483C173.754 33.0359 174.026 34.1987 175.592 36.9344C177.77 40.6277 182.127 44.8682 186.689 47.5356L190.024 49.4506L184.578 52.0496C166.265 60.8725 136.038 61.8984 119.904 54.1698C115.887 52.2548 115.41 51.5708 117.793 50.9553C120.108 50.4081 128.754 44.5946 134.064 40.0806C142.165 33.1043 148.973 20.4514 147.884 14.2959C147.271 10.9446 145.297 7.45646 142.574 4.85748C140.599 2.94243 139.51 2.46368 135.221 1.91652C129.026 1.02739 124.329 1.57455 119.904 3.62638L116.5 5.19945L114.593 3.83156C112.415 2.25849 103.565 -0.0669174 99.8885 0.00147629C98.595 0.00147629 96.4165 0.54863 95.0549 1.30097ZM107.786 5.13105C112.891 6.84091 113.164 7.31967 111.189 11.2865C108.875 16.0058 108.398 19.1519 109.692 21.6825C110.849 23.9395 111.938 24.555 115.07 24.555C117.453 24.555 122.354 21.6141 122.354 20.2462C122.354 19.7674 121.81 17.3052 121.197 14.7747L119.972 10.0554L121.946 8.48238C124.737 6.29376 129.094 5.19945 133.928 5.54142C138.489 5.88339 140.804 7.45646 142.506 11.4917C145.161 17.9208 142.233 24.555 132.294 34.4722C126.439 40.4225 124.397 41.8588 118.474 44.9366C114.661 46.92 110.985 48.4931 110.304 48.4931C106.832 48.4931 95.0549 37.6184 91.719 31.3261C87.4982 23.3923 88.3832 16.0742 94.306 9.4399C99.1396 4.03674 101.863 3.21601 107.786 5.13105ZM55.9778 7.73004C65.8492 11.9021 56.114 25.9913 33.7842 39.8754L31.6738 41.1749L26.9764 36.1821C16.6965 25.3074 14.5861 13.9539 22.0067 9.09793C24.5256 7.38807 30.3122 7.45646 31.5376 9.16632C32.3546 10.2606 32.2865 10.7394 31.0611 12.5176C28.2699 16.7581 27.5891 19.0835 28.406 21.2037C29.8357 24.555 32.3546 26.6069 35.2139 26.6069C41.1367 26.6069 44.7449 18.6731 41.3409 13.0648C40.5921 11.8337 39.9794 10.671 39.9794 10.5342C39.9794 9.91866 43.4514 8.68756 47.468 7.73004C52.4377 6.63573 53.2547 6.63573 55.9778 7.73004ZM116.908 15.1166C116.908 17.5788 115.887 19.6991 115.138 18.8783C114.661 18.3996 116.023 12.928 116.568 12.928C116.772 12.928 116.908 13.9539 116.908 15.1166ZM213.784 15.3218C215.145 16.6213 215.826 21.1353 215.282 24.4867C214.805 27.2908 211.197 33.9251 208.61 36.7976C205.819 39.807 197.309 45.7573 195.675 45.7573C193.769 45.7573 180.97 36.866 179.813 34.6774C179.268 33.7883 178.928 31.5313 178.928 29.6846C178.86 20.9302 186.008 14.5011 192.679 17.3053C195.13 18.3312 195.198 18.3996 194.79 21.3405C194.313 24.897 195.539 26.6069 198.602 26.6069C200.985 26.6069 201.938 25.0338 201.53 22.0929C201.257 20.3146 201.598 19.6307 203.844 17.784C207.725 14.5695 212.014 13.4752 213.784 15.3218ZM36.3712 18.8783C34.7373 20.5198 34.1927 19.4939 35.282 16.9633C36.0989 14.8431 36.167 14.7747 36.8478 16.2793C37.3243 17.442 37.1882 18.0576 36.3712 18.8783Z" fill="#FFE6E1"/>
</svg>
