<svg width="96" height="92" viewBox="0 0 96 92" fill="none" xmlns="http://www.w3.org/2000/svg">
<path opacity="0.2" d="M42.4112 1.14234C42.2598 1.78068 41.9064 4.38313 41.6035 6.93649C40.9977 11.9941 40.2404 15.284 38.2211 21.6183C37.1105 24.9082 36.4037 26.2339 34.4349 28.3454C27.6701 35.5144 13.8883 41.7996 4.90229 41.7996C2.37813 41.7996 1.51992 41.996 0.712192 42.7816C-0.0955372 43.5673 -0.196503 43.9601 0.308327 44.9422C0.762675 45.9242 1.31799 46.2189 3.18586 46.4644C13.333 47.5937 18.5327 48.9686 24.9441 52.1112C29.5885 54.3699 30.3962 55.2047 32.9204 60.2132C37.1105 68.4134 40.089 79.1178 40.089 86.0905C40.089 90.5588 40.8967 92.0319 43.2694 91.7864C44.8849 91.6391 44.8849 91.59 45.1878 88.4474C45.4907 84.6665 47.0556 81.573 51.9525 74.9441C59.0706 65.2708 62.9073 62.03 73.3573 56.8251C81.4346 52.7986 86.382 51.0309 91.9856 50.1471C94.2573 49.8034 95.8223 49.3123 95.9737 48.8704C96.2766 48.0357 93.8534 44.3038 92.9447 44.2056C92.6419 44.1565 91.9856 44.1565 91.5312 44.2056C89.4109 44.402 80.7783 42.2415 76.1844 40.3265C67.9556 36.9384 65.5324 35.5144 61.4938 31.5371C58.4143 28.4927 57.2532 26.8723 55.1329 22.6494C53.7194 19.8015 52.3059 17.1499 51.9525 16.7571C51.5991 16.3643 50.1856 12.8288 48.7721 8.90061C47.3585 4.97237 46.0965 1.38786 45.8945 0.896828C45.3392 -0.428955 42.7141 -0.232544 42.4112 1.14234ZM48.1663 16.7571C52.0535 24.81 54.0223 27.9035 58.7172 33.403C63.5131 39.0007 75.2757 45.8751 81.5356 46.7099C84.4131 47.1027 85.4733 47.4464 84.9684 47.8393C84.8675 47.9375 83.2015 48.5267 81.2832 49.1159C66.5926 53.6825 53.8204 64.0923 45.844 77.9394C44.8344 79.658 43.8752 81.082 43.6733 81.082C43.4713 81.082 43.017 79.4125 42.6636 77.3501C42.3102 75.3369 41.6035 72.4398 41.0482 70.9176C38.9279 64.9271 34.2329 54.861 32.7185 53.1424C30.6486 50.8345 27.2663 49.0177 19.3909 46.1698L13.0805 43.8619L16.1095 43.0272C17.7755 42.5361 20.2996 41.6523 21.6627 41.063C24.5907 39.7864 33.7786 33.894 37.0095 31.1933C39.3317 29.2292 41.3006 25.6938 41.8559 22.3548C42.0578 21.2746 42.7646 18.0338 43.4713 15.0385L44.7839 9.63715L45.6926 11.6013C46.2479 12.6815 47.3585 14.9894 48.1663 16.7571Z" fill="#832A19"/>
</svg>
