<svg width="36" height="35" viewBox="0 0 36 35" fill="none" xmlns="http://www.w3.org/2000/svg">
<circle cx="17.9167" cy="17.5" r="16.7708" stroke="#421908" stroke-width="1.45833"/>
<path d="M14.0343 8.9332C14.034 9.41667 13.8417 9.88024 13.4997 10.2219C13.1577 10.5636 12.6939 10.7555 12.2104 10.7552C11.727 10.755 11.2634 10.5627 10.9217 10.2206C10.58 9.87861 10.3882 9.41485 10.3884 8.93138C10.3887 8.44791 10.581 7.98434 10.923 7.64265C11.265 7.30096 11.7288 7.10913 12.2123 7.10938C12.6957 7.10962 13.1593 7.30191 13.501 7.64394C13.8427 7.98597 14.0345 8.44974 14.0343 8.9332ZM14.0889 12.1051H10.4431V23.5165H14.0889V12.1051ZM19.8494 12.1051H16.2218V23.5165H19.8129V17.5283C19.8129 14.1923 24.1606 13.8824 24.1606 17.5283V23.5165H27.7608V16.2887C27.7608 10.665 21.3259 10.8746 19.8129 13.6363L19.8494 12.1051Z" fill="#421908"/>
</svg>
